<svg id="svg" version="1.1" xmlns="http://www.w3.org/2000/svg" xmlns:xlink="http://www.w3.org/1999/xlink" width="400" height="400" viewBox="0, 0, 400,400"><g id="svgg"><path id="path0" d="M190.200 98.753 C 189.100 98.903,187.570 99.313,186.800 99.664 C 186.030 100.014,184.507 100.430,183.416 100.588 C 182.325 100.745,180.993 101.220,180.456 101.642 C 179.919 102.064,178.798 102.519,177.965 102.652 C 177.131 102.785,176.361 103.125,176.253 103.407 C 176.145 103.689,175.368 104.144,174.528 104.418 C 173.688 104.692,172.491 105.340,171.869 105.858 C 171.247 106.376,170.456 106.800,170.111 106.800 C 169.766 106.800,169.105 107.164,168.642 107.608 C 168.179 108.053,166.586 109.407,165.102 110.617 C 161.437 113.606,157.841 117.287,155.496 120.451 C 155.110 120.973,154.377 121.940,153.870 122.600 C 153.362 123.260,152.717 124.372,152.436 125.071 C 152.156 125.770,151.696 126.431,151.414 126.539 C 151.132 126.648,150.785 127.356,150.643 128.113 C 150.501 128.871,150.041 129.801,149.621 130.181 C 149.202 130.561,148.740 131.570,148.596 132.424 C 148.452 133.278,148.009 134.389,147.613 134.893 C 147.217 135.397,146.701 137.039,146.467 138.543 C 146.232 140.047,145.717 141.756,145.320 142.339 C 144.215 143.967,144.225 164.863,145.332 166.552 C 145.734 167.167,146.250 168.867,146.478 170.330 C 146.706 171.794,147.211 173.397,147.601 173.892 C 147.991 174.388,148.435 175.470,148.587 176.297 C 148.740 177.123,149.191 178.160,149.589 178.600 C 149.988 179.040,150.437 179.985,150.589 180.700 C 150.740 181.415,151.038 182.000,151.251 182.000 C 151.465 182.000,151.945 182.675,152.320 183.501 C 153.079 185.176,154.064 186.637,155.700 188.515 C 156.305 189.210,156.800 189.987,156.800 190.243 C 156.800 190.499,157.250 191.003,157.800 191.363 C 158.350 191.724,158.800 192.263,158.800 192.563 C 158.800 192.862,159.173 193.204,159.630 193.324 C 160.086 193.443,160.557 193.914,160.676 194.370 C 160.796 194.827,161.046 195.200,161.233 195.200 C 161.420 195.200,162.164 195.745,162.886 196.411 C 165.178 198.524,165.362 198.680,167.303 200.155 C 168.350 200.950,169.373 201.600,169.575 201.600 C 169.777 201.600,170.192 201.849,170.497 202.154 C 170.801 202.458,171.828 203.133,172.779 203.654 C 173.730 204.174,174.889 204.822,175.354 205.094 C 175.819 205.366,176.491 205.591,176.846 205.594 C 177.201 205.597,177.952 205.962,178.515 206.404 C 179.077 206.847,180.486 207.389,181.645 207.609 C 182.805 207.828,184.176 208.285,184.692 208.623 C 185.208 208.962,187.058 209.401,188.802 209.600 C 190.546 209.799,192.744 210.189,193.686 210.467 C 195.895 211.118,205.713 211.138,207.600 210.495 C 208.370 210.233,210.557 209.844,212.459 209.632 C 214.531 209.400,216.534 208.915,217.453 208.423 C 218.298 207.970,219.414 207.600,219.935 207.600 C 220.793 207.600,222.393 206.908,225.800 205.064 C 226.460 204.706,227.630 204.124,228.400 203.769 C 229.170 203.414,230.160 202.801,230.600 202.408 C 231.040 202.014,231.805 201.569,232.300 201.419 C 232.795 201.269,233.200 200.996,233.200 200.813 C 233.200 200.629,233.785 200.131,234.500 199.705 C 238.101 197.561,245.228 189.856,248.472 184.600 C 249.151 183.500,250.014 182.150,250.390 181.600 C 250.766 181.050,251.305 179.880,251.587 179.000 C 251.870 178.120,252.338 177.127,252.628 176.794 C 252.918 176.460,253.355 175.293,253.600 174.200 C 253.845 173.107,254.306 171.925,254.624 171.574 C 254.942 171.222,255.383 169.509,255.603 167.767 C 255.824 166.025,256.318 163.700,256.702 162.600 C 257.681 159.796,257.680 149.069,256.702 146.336 C 256.334 145.311,255.848 142.987,255.620 141.171 C 255.389 139.331,254.940 137.575,254.604 137.204 C 254.273 136.838,253.848 135.715,253.660 134.707 C 253.471 133.700,252.931 132.384,252.459 131.784 C 251.986 131.183,251.600 130.344,251.600 129.919 C 251.600 129.494,251.150 128.557,250.600 127.836 C 250.050 127.114,249.600 126.380,249.600 126.204 C 249.600 125.799,247.156 122.116,246.040 120.839 C 245.578 120.310,245.200 119.678,245.200 119.435 C 245.200 119.192,244.840 118.768,244.400 118.493 C 243.960 118.218,243.600 117.737,243.600 117.424 C 243.600 117.110,243.240 116.740,242.800 116.600 C 242.360 116.460,242.000 116.199,242.000 116.020 C 242.000 115.676,239.597 113.280,237.566 111.600 C 236.902 111.050,235.942 110.195,235.433 109.700 C 234.924 109.205,234.296 108.800,234.036 108.800 C 233.776 108.800,233.145 108.381,232.634 107.870 C 232.122 107.358,231.153 106.712,230.481 106.433 C 229.808 106.155,229.160 105.673,229.041 105.363 C 228.922 105.054,228.485 104.800,228.068 104.800 C 227.652 104.800,226.662 104.359,225.868 103.820 C 225.074 103.282,223.788 102.721,223.009 102.575 C 222.230 102.429,221.182 101.987,220.681 101.592 C 220.179 101.197,218.875 100.750,217.784 100.598 C 216.693 100.447,215.080 99.951,214.200 99.497 C 212.504 98.622,195.121 98.083,190.200 98.753 " stroke="none" fill="#040404" fill-rule="evenodd"></path><path id="path1" d="M177.200 20.200 L 177.200 21.200 172.200 21.200 L 167.200 21.200 167.200 22.200 L 167.200 23.200 163.200 23.200 L 159.200 23.200 159.200 24.200 C 159.200 25.178,159.133 25.200,156.200 25.200 C 153.267 25.200,153.200 25.222,153.200 26.200 C 153.200 27.146,153.081 27.200,150.981 27.200 C 149.128 27.200,148.609 27.365,147.835 28.200 C 147.103 28.990,146.518 29.200,145.054 29.200 C 143.343 29.200,143.200 29.277,143.200 30.200 C 143.200 31.133,143.067 31.200,141.200 31.200 C 139.333 31.200,139.200 31.267,139.200 32.200 C 139.200 33.133,139.067 33.200,137.200 33.200 C 135.345 33.200,135.200 33.271,135.200 34.178 C 135.200 35.061,135.015 35.168,133.300 35.278 C 131.679 35.382,131.381 35.532,131.272 36.300 C 131.187 36.897,130.870 37.200,130.330 37.200 C 129.882 37.200,129.161 37.650,128.729 38.200 C 128.163 38.919,127.557 39.200,126.571 39.200 C 125.375 39.200,125.200 39.328,125.200 40.200 C 125.200 41.005,125.001 41.200,124.182 41.200 C 123.622 41.200,122.714 41.650,122.164 42.200 C 121.614 42.750,120.722 43.200,120.182 43.200 C 119.401 43.200,119.200 43.405,119.200 44.200 C 119.200 45.000,119.000 45.200,118.200 45.200 C 117.400 45.200,117.200 45.400,117.200 46.200 C 117.200 47.005,117.001 47.200,116.182 47.200 C 115.622 47.200,114.727 47.637,114.193 48.171 C 113.659 48.705,112.812 49.200,112.311 49.271 C 111.722 49.354,111.355 49.718,111.272 50.300 C 111.180 50.951,110.876 51.200,110.172 51.200 C 109.402 51.200,109.200 51.408,109.200 52.200 C 109.200 53.000,109.000 53.200,108.200 53.200 C 107.400 53.200,107.200 53.400,107.200 54.200 C 107.200 55.000,107.000 55.200,106.200 55.200 C 105.400 55.200,105.200 55.400,105.200 56.200 C 105.200 57.000,105.000 57.200,104.200 57.200 C 103.400 57.200,103.200 57.400,103.200 58.200 C 103.200 59.000,103.000 59.200,102.200 59.200 C 101.400 59.200,101.200 59.400,101.200 60.200 C 101.200 61.000,101.000 61.200,100.200 61.200 C 99.400 61.200,99.200 61.400,99.200 62.200 C 99.200 63.000,99.000 63.200,98.200 63.200 C 97.408 63.200,97.200 63.402,97.200 64.172 C 97.200 64.874,96.951 65.180,96.304 65.272 C 95.787 65.346,95.344 65.738,95.256 66.199 C 95.172 66.638,94.675 67.395,94.152 67.880 C 93.551 68.437,93.200 69.211,93.200 69.981 C 93.200 71.015,93.048 71.200,92.200 71.200 C 91.400 71.200,91.200 71.400,91.200 72.200 C 91.200 73.000,91.000 73.200,90.200 73.200 C 89.405 73.200,89.200 73.401,89.200 74.182 C 89.200 74.722,88.750 75.614,88.200 76.164 C 87.650 76.714,87.200 77.622,87.200 78.182 C 87.200 79.001,87.005 79.200,86.200 79.200 C 85.328 79.200,85.200 79.375,85.200 80.571 C 85.200 81.557,84.919 82.163,84.200 82.729 C 83.650 83.161,83.200 83.894,83.200 84.358 C 83.200 84.989,82.950 85.200,82.200 85.200 C 81.267 85.200,81.200 85.333,81.200 87.200 C 81.200 89.067,81.133 89.200,80.200 89.200 C 79.267 89.200,79.200 89.333,79.200 91.200 C 79.200 93.166,78.943 93.475,77.500 93.247 C 77.335 93.221,77.221 93.335,77.247 93.500 C 77.584 95.633,77.141 97.200,76.200 97.200 C 75.270 97.200,75.200 97.337,75.200 99.151 C 75.200 100.675,75.020 101.223,74.378 101.651 C 73.479 102.251,73.277 102.929,73.231 105.500 C 73.203 107.039,73.105 107.200,72.200 107.200 C 71.222 107.200,71.200 107.267,71.200 110.200 C 71.200 113.133,71.178 113.200,70.200 113.200 L 69.200 113.200 69.200 117.200 L 69.200 121.200 68.200 121.200 L 67.200 121.200 67.200 125.571 C 67.200 129.767,67.160 129.974,66.191 130.736 L 65.182 131.529 65.291 153.065 L 65.400 174.600 66.300 174.728 C 67.165 174.851,67.200 175.012,67.200 178.846 C 67.200 182.569,67.267 182.903,68.200 183.836 C 69.088 184.724,69.200 185.171,69.200 187.818 C 69.200 190.732,69.223 190.800,70.200 190.800 C 71.184 190.800,71.200 190.852,71.200 194.019 C 71.200 196.939,71.293 197.324,72.200 198.165 C 72.990 198.897,73.200 199.482,73.200 200.946 C 73.200 202.657,73.277 202.800,74.200 202.800 C 75.178 202.800,75.200 202.867,75.200 205.800 C 75.200 208.733,75.222 208.800,76.200 208.800 C 77.105 208.800,77.203 208.961,77.231 210.500 C 77.277 213.071,77.479 213.749,78.378 214.349 C 79.020 214.777,79.200 215.325,79.200 216.849 C 79.200 218.663,79.270 218.800,80.200 218.800 C 81.133 218.800,81.200 218.933,81.200 220.800 C 81.200 222.667,81.267 222.800,82.200 222.800 C 83.133 222.800,83.200 222.933,83.200 224.800 C 83.200 226.667,83.267 226.800,84.200 226.800 C 85.146 226.800,85.200 226.919,85.200 229.019 C 85.200 230.872,85.365 231.391,86.200 232.165 C 86.788 232.710,87.200 233.534,87.200 234.165 C 87.200 234.796,87.612 235.620,88.200 236.165 C 88.788 236.710,89.200 237.534,89.200 238.165 C 89.200 238.796,89.612 239.620,90.200 240.165 C 90.788 240.710,91.200 241.534,91.200 242.165 C 91.200 242.796,91.612 243.620,92.200 244.165 C 92.750 244.675,93.200 245.476,93.200 245.946 C 93.200 246.590,93.446 246.800,94.200 246.800 C 95.133 246.800,95.200 246.933,95.200 248.800 C 95.200 250.667,95.267 250.800,96.200 250.800 C 97.133 250.800,97.200 250.933,97.200 252.800 C 97.200 254.667,97.267 254.800,98.200 254.800 C 99.133 254.800,99.200 254.933,99.200 256.800 C 99.200 258.667,99.267 258.800,100.200 258.800 C 101.072 258.800,101.200 258.975,101.200 260.171 C 101.200 261.473,102.022 262.800,102.829 262.800 C 103.033 262.800,103.200 263.250,103.200 263.800 C 103.200 264.600,103.400 264.800,104.200 264.800 C 105.133 264.800,105.200 264.933,105.200 266.800 C 105.200 268.667,105.267 268.800,106.200 268.800 C 107.048 268.800,107.200 268.985,107.200 270.019 C 107.200 270.806,107.555 271.567,108.200 272.165 C 108.750 272.675,109.200 273.476,109.200 273.946 C 109.200 274.590,109.446 274.800,110.200 274.800 C 111.133 274.800,111.200 274.933,111.200 276.800 C 111.200 278.667,111.267 278.800,112.200 278.800 C 112.950 278.800,113.200 279.011,113.200 279.642 C 113.200 280.106,113.650 280.839,114.200 281.271 C 114.919 281.837,115.200 282.443,115.200 283.429 C 115.200 284.625,115.328 284.800,116.200 284.800 C 117.048 284.800,117.200 284.985,117.200 286.019 C 117.200 286.806,117.555 287.567,118.200 288.165 C 118.750 288.675,119.200 289.476,119.200 289.946 C 119.200 290.585,119.446 290.800,120.178 290.800 C 121.061 290.800,121.168 290.985,121.278 292.700 C 121.382 294.321,121.532 294.619,122.300 294.728 C 122.951 294.820,123.200 295.124,123.200 295.828 C 123.200 296.592,123.409 296.800,124.178 296.800 C 125.061 296.800,125.168 296.985,125.278 298.700 C 125.382 300.321,125.532 300.619,126.300 300.728 C 126.951 300.820,127.200 301.124,127.200 301.828 C 127.200 302.598,127.408 302.800,128.200 302.800 C 129.072 302.800,129.200 302.975,129.200 304.171 C 129.200 305.473,130.022 306.800,130.829 306.800 C 131.033 306.800,131.200 307.250,131.200 307.800 C 131.200 308.600,131.400 308.800,132.200 308.800 C 133.005 308.800,133.200 308.999,133.200 309.818 C 133.200 310.378,133.650 311.286,134.200 311.836 C 134.750 312.386,135.200 313.278,135.200 313.818 C 135.200 314.599,135.405 314.800,136.200 314.800 C 137.000 314.800,137.200 315.000,137.200 315.800 C 137.200 316.594,137.401 316.800,138.178 316.800 C 139.061 316.800,139.168 316.985,139.278 318.700 C 139.382 320.321,139.532 320.619,140.300 320.728 C 140.951 320.820,141.200 321.124,141.200 321.828 C 141.200 322.598,141.408 322.800,142.200 322.800 C 142.950 322.800,143.200 323.011,143.200 323.642 C 143.200 324.106,143.650 324.839,144.200 325.271 C 144.919 325.837,145.200 326.443,145.200 327.429 C 145.200 328.625,145.328 328.800,146.200 328.800 C 147.000 328.800,147.200 329.000,147.200 329.800 C 147.200 330.600,147.400 330.800,148.200 330.800 C 149.005 330.800,149.200 330.999,149.200 331.818 C 149.200 332.378,149.650 333.286,150.200 333.836 C 150.750 334.386,151.200 335.278,151.200 335.818 C 151.200 336.599,151.405 336.800,152.200 336.800 C 153.000 336.800,153.200 337.000,153.200 337.800 C 153.200 338.600,153.400 338.800,154.200 338.800 C 154.950 338.800,155.200 339.011,155.200 339.642 C 155.200 340.106,155.650 340.839,156.200 341.271 C 156.919 341.837,157.200 342.443,157.200 343.429 C 157.200 344.625,157.328 344.800,158.200 344.800 C 159.000 344.800,159.200 345.000,159.200 345.800 C 159.200 346.600,159.400 346.800,160.200 346.800 C 161.000 346.800,161.200 347.000,161.200 347.800 C 161.200 348.594,161.401 348.800,162.178 348.800 C 163.061 348.800,163.168 348.985,163.278 350.700 C 163.382 352.321,163.532 352.619,164.300 352.728 C 164.951 352.820,165.200 353.124,165.200 353.828 C 165.200 354.598,165.408 354.800,166.200 354.800 C 167.000 354.800,167.200 355.000,167.200 355.800 C 167.200 356.600,167.400 356.800,168.200 356.800 C 169.000 356.800,169.200 357.000,169.200 357.800 C 169.200 358.594,169.401 358.800,170.178 358.800 C 171.061 358.800,171.168 358.985,171.278 360.700 C 171.382 362.321,171.532 362.619,172.300 362.728 C 172.951 362.820,173.200 363.124,173.200 363.828 C 173.200 364.598,173.408 364.800,174.200 364.800 C 175.000 364.800,175.200 365.000,175.200 365.800 C 175.200 366.600,175.400 366.800,176.200 366.800 C 177.000 366.800,177.200 367.000,177.200 367.800 C 177.200 368.600,177.400 368.800,178.200 368.800 C 178.950 368.800,179.200 369.011,179.200 369.642 C 179.200 370.106,179.639 370.830,180.175 371.252 C 180.770 371.720,181.199 372.523,181.275 373.310 C 181.366 374.250,181.620 374.632,182.212 374.716 C 182.659 374.780,183.199 375.230,183.412 375.716 C 183.709 376.393,184.198 376.629,185.500 376.723 C 187.002 376.832,187.200 376.960,187.200 377.823 C 187.200 378.591,187.408 378.800,188.172 378.800 C 188.876 378.800,189.180 379.049,189.272 379.700 L 189.400 380.600 200.100 380.707 L 210.800 380.813 210.800 379.807 C 210.800 379.050,211.009 378.800,211.642 378.800 C 212.106 378.800,212.830 378.361,213.252 377.825 C 213.720 377.230,214.523 376.801,215.310 376.725 C 216.284 376.630,216.630 376.386,216.725 375.725 C 216.802 375.181,217.179 374.802,217.721 374.725 C 218.214 374.654,218.658 374.254,218.744 373.801 C 218.828 373.362,219.325 372.605,219.848 372.120 C 220.449 371.563,220.800 370.789,220.800 370.019 C 220.800 368.985,220.952 368.800,221.800 368.800 C 222.600 368.800,222.800 368.600,222.800 367.800 C 222.800 367.000,223.000 366.800,223.800 366.800 C 224.600 366.800,224.800 366.600,224.800 365.800 C 224.800 365.000,225.000 364.800,225.800 364.800 C 226.592 364.800,226.800 364.598,226.800 363.828 C 226.800 363.124,227.049 362.820,227.700 362.728 C 228.388 362.630,228.629 362.296,228.725 361.310 C 228.801 360.523,229.230 359.720,229.825 359.252 C 230.361 358.830,230.800 358.106,230.800 357.642 C 230.800 357.011,231.050 356.800,231.800 356.800 C 232.600 356.800,232.800 356.600,232.800 355.800 C 232.800 355.000,233.000 354.800,233.800 354.800 C 234.592 354.800,234.800 354.598,234.800 353.828 C 234.800 353.124,235.049 352.820,235.700 352.728 C 236.388 352.630,236.629 352.296,236.725 351.310 C 236.801 350.523,237.230 349.720,237.825 349.252 C 238.361 348.830,238.800 348.106,238.800 347.642 C 238.800 347.011,239.050 346.800,239.800 346.800 C 240.600 346.800,240.800 346.600,240.800 345.800 C 240.800 345.000,241.000 344.800,241.800 344.800 C 242.554 344.800,242.800 344.590,242.800 343.946 C 242.800 343.476,243.250 342.675,243.800 342.165 C 244.445 341.567,244.800 340.806,244.800 340.019 C 244.800 338.985,244.952 338.800,245.800 338.800 C 246.600 338.800,246.800 338.600,246.800 337.800 C 246.800 337.000,247.000 336.800,247.800 336.800 C 248.600 336.800,248.800 336.600,248.800 335.800 C 248.800 335.250,248.967 334.800,249.171 334.800 C 249.978 334.800,250.800 333.473,250.800 332.171 C 250.800 330.975,250.928 330.800,251.800 330.800 C 252.600 330.800,252.800 330.600,252.800 329.800 C 252.800 329.002,253.001 328.800,253.792 328.800 C 254.526 328.800,254.852 328.530,255.045 327.764 C 255.188 327.194,255.731 326.268,256.252 325.706 C 256.774 325.143,257.200 324.272,257.200 323.769 C 257.200 323.127,257.467 322.818,258.097 322.728 C 258.682 322.645,259.065 322.252,259.197 321.600 C 259.309 321.050,259.670 320.600,260.000 320.600 C 260.384 320.600,260.566 320.276,260.505 319.700 C 260.452 319.205,260.587 318.800,260.805 318.800 C 261.022 318.800,261.200 318.350,261.200 317.800 C 261.200 317.000,261.400 316.800,262.200 316.800 C 263.000 316.800,263.200 316.600,263.200 315.800 C 263.200 315.070,263.414 314.800,263.992 314.800 C 264.511 314.800,264.874 314.443,265.045 313.764 C 265.188 313.194,265.731 312.268,266.252 311.706 C 266.774 311.143,267.200 310.272,267.200 309.769 C 267.200 309.126,267.467 308.818,268.100 308.728 C 268.663 308.648,269.046 308.279,269.122 307.741 C 269.190 307.268,269.581 306.794,269.991 306.686 C 270.525 306.547,270.816 305.967,271.014 304.646 C 271.254 303.044,271.417 302.800,272.245 302.800 C 272.985 302.800,273.200 302.585,273.200 301.847 C 273.200 301.243,273.482 300.820,273.969 300.692 C 274.529 300.546,274.812 299.990,275.014 298.646 C 275.254 297.044,275.417 296.800,276.245 296.800 C 276.985 296.800,277.200 296.585,277.200 295.847 C 277.200 295.243,277.482 294.820,277.969 294.692 C 278.527 294.546,278.812 293.992,279.011 292.668 C 279.228 291.218,279.459 290.820,280.138 290.722 C 280.614 290.654,281.059 290.248,281.144 289.804 C 281.227 289.367,281.634 288.772,282.047 288.482 C 282.460 288.193,282.910 287.256,283.046 286.400 C 283.236 285.214,283.499 284.814,284.148 284.722 C 284.682 284.645,285.048 284.260,285.129 283.689 C 285.200 283.188,285.695 282.307,286.229 281.731 C 286.763 281.155,287.200 280.259,287.200 279.742 C 287.200 279.084,287.429 278.800,287.957 278.800 C 288.847 278.800,289.200 278.052,289.200 276.167 C 289.200 274.976,289.328 274.800,290.200 274.800 C 290.987 274.800,291.200 274.597,291.200 273.847 C 291.200 273.243,291.482 272.820,291.969 272.692 C 292.529 272.546,292.812 271.990,293.014 270.646 C 293.224 269.247,293.463 268.800,294.003 268.800 C 294.849 268.800,295.200 268.028,295.200 266.167 C 295.200 264.976,295.328 264.800,296.200 264.800 C 296.987 264.800,297.200 264.597,297.200 263.847 C 297.200 263.243,297.482 262.820,297.969 262.692 C 298.529 262.546,298.812 261.990,299.014 260.646 C 299.223 259.251,299.464 258.800,299.999 258.800 C 300.734 258.800,301.185 257.742,301.195 255.996 C 301.198 255.413,301.553 254.772,302.042 254.467 C 302.658 254.082,302.802 254.073,302.580 254.432 C 302.380 254.756,302.442 254.821,302.762 254.624 C 303.029 254.459,303.217 253.936,303.179 253.462 C 303.017 251.398,303.201 250.800,304.000 250.800 C 304.644 250.800,304.800 250.533,304.800 249.429 C 304.800 248.443,305.081 247.837,305.800 247.271 C 306.350 246.839,306.800 246.148,306.800 245.737 C 306.800 245.326,307.205 244.812,307.700 244.595 C 308.383 244.295,308.629 243.811,308.719 242.587 C 308.808 241.374,309.056 240.878,309.719 240.587 C 310.381 240.296,310.629 239.800,310.719 238.587 C 310.808 237.374,311.056 236.878,311.719 236.587 C 312.381 236.296,312.629 235.800,312.719 234.587 C 312.808 233.374,313.056 232.878,313.719 232.587 C 314.438 232.271,314.622 231.817,314.720 230.113 C 314.816 228.459,315.044 227.866,315.820 227.255 C 316.607 226.637,316.800 226.121,316.800 224.642 C 316.800 222.944,316.878 222.800,317.800 222.800 C 318.733 222.800,318.800 222.667,318.800 220.800 C 318.800 218.933,318.867 218.800,319.800 218.800 C 320.727 218.800,320.800 218.660,320.800 216.895 C 320.800 215.303,320.948 214.925,321.700 214.595 C 322.486 214.250,322.615 213.857,322.718 211.500 C 322.831 208.932,322.885 208.800,323.818 208.800 C 324.728 208.800,324.800 208.656,324.800 206.818 C 324.800 205.238,325.002 204.634,325.800 203.836 C 326.589 203.047,326.800 202.431,326.800 200.913 C 326.800 199.302,326.946 198.926,327.700 198.595 C 328.505 198.242,328.612 197.874,328.717 195.116 C 328.820 192.389,328.947 191.942,329.817 191.258 C 330.691 190.571,330.800 190.179,330.800 187.737 C 330.800 185.272,330.892 184.949,331.700 184.595 C 332.550 184.222,332.606 183.938,332.713 179.500 L 332.825 174.800 333.813 174.800 L 334.800 174.800 334.800 152.629 C 334.800 129.480,334.781 129.200,333.171 129.200 C 332.967 129.200,332.800 127.392,332.800 125.182 C 332.800 121.429,332.734 121.098,331.800 120.164 C 330.912 119.276,330.800 118.829,330.800 116.182 C 330.800 113.268,330.777 113.200,329.800 113.200 C 328.822 113.200,328.800 113.133,328.800 110.200 C 328.800 107.282,328.773 107.200,327.818 107.200 C 326.885 107.200,326.831 107.068,326.718 104.500 C 326.615 102.143,326.486 101.750,325.700 101.405 C 324.948 101.075,324.800 100.697,324.800 99.105 C 324.800 97.340,324.727 97.200,323.800 97.200 C 322.867 97.200,322.800 97.067,322.800 95.200 C 322.800 93.333,322.733 93.200,321.800 93.200 C 320.859 93.200,320.416 91.633,320.753 89.500 C 320.779 89.335,320.665 89.221,320.500 89.247 C 319.057 89.475,318.800 89.166,318.800 87.200 C 318.800 85.333,318.733 85.200,317.800 85.200 C 316.952 85.200,316.800 85.015,316.800 83.981 C 316.800 83.194,316.445 82.433,315.800 81.835 C 315.250 81.325,314.800 80.524,314.800 80.054 C 314.800 79.410,314.554 79.200,313.800 79.200 C 312.952 79.200,312.800 79.015,312.800 77.981 C 312.800 77.194,312.445 76.433,311.800 75.835 C 311.250 75.325,310.800 74.524,310.800 74.054 C 310.800 73.410,310.554 73.200,309.800 73.200 C 309.000 73.200,308.800 73.000,308.800 72.200 C 308.800 71.400,308.600 71.200,307.800 71.200 C 306.928 71.200,306.800 71.025,306.800 69.829 C 306.800 68.527,305.978 67.200,305.171 67.200 C 304.967 67.200,304.800 66.750,304.800 66.200 C 304.800 65.470,304.586 65.200,304.008 65.200 C 303.496 65.200,303.126 64.846,302.964 64.200 C 302.814 63.601,302.427 63.200,302.000 63.200 C 301.573 63.200,301.186 62.799,301.036 62.200 C 300.878 61.570,300.502 61.200,300.020 61.200 C 299.532 61.200,299.209 60.875,299.128 60.300 C 299.047 59.730,298.679 59.354,298.125 59.275 C 297.579 59.198,297.202 58.821,297.125 58.275 C 297.047 57.730,296.670 57.353,296.125 57.275 C 295.579 57.198,295.202 56.821,295.125 56.275 C 295.048 55.735,294.670 55.353,294.138 55.277 C 293.613 55.202,293.179 54.772,293.030 54.177 C 292.874 53.556,292.499 53.200,292.000 53.200 C 291.497 53.200,291.125 52.842,290.964 52.200 C 290.784 51.482,290.443 51.200,289.757 51.200 C 289.003 51.200,288.800 50.988,288.800 50.200 C 288.800 49.400,288.600 49.200,287.800 49.200 C 287.250 49.200,286.800 49.033,286.800 48.829 C 286.800 48.075,285.510 47.200,284.399 47.200 C 283.518 47.200,283.226 46.994,283.128 46.300 C 283.048 45.735,282.679 45.354,282.138 45.277 C 281.613 45.202,281.179 44.772,281.030 44.177 C 280.852 43.469,280.511 43.200,279.792 43.200 C 279.247 43.200,278.800 43.033,278.800 42.829 C 278.800 42.079,277.512 41.200,276.415 41.200 C 275.545 41.200,275.229 40.971,275.036 40.200 C 274.849 39.456,274.520 39.200,273.750 39.200 C 273.123 39.200,272.405 38.806,271.929 38.200 C 271.410 37.540,270.744 37.200,269.971 37.200 C 268.989 37.200,268.800 37.039,268.800 36.200 C 268.800 35.285,268.650 35.200,267.043 35.200 C 265.503 35.200,265.256 35.077,265.036 34.200 C 264.816 33.324,264.568 33.200,263.036 33.200 C 261.504 33.200,261.256 33.076,261.036 32.200 C 260.815 31.320,260.570 31.200,259.000 31.200 C 257.430 31.200,257.185 31.080,256.964 30.200 C 256.739 29.304,256.510 29.200,254.757 29.200 C 253.680 29.200,252.800 29.033,252.800 28.829 C 252.800 27.806,251.449 27.200,249.171 27.200 C 246.909 27.200,246.800 27.154,246.800 26.200 C 246.800 25.222,246.733 25.200,243.800 25.200 C 240.867 25.200,240.800 25.178,240.800 24.200 L 240.800 23.200 236.800 23.200 L 232.800 23.200 232.800 22.200 L 232.800 21.200 228.429 21.200 C 224.243 21.200,224.025 21.158,223.271 20.200 L 222.485 19.200 199.842 19.200 L 177.200 19.200 177.200 20.200 M208.659 96.447 C 209.162 96.886,210.557 97.177,213.000 97.352 C 215.547 97.535,216.893 97.826,217.603 98.346 C 218.154 98.749,219.446 99.206,220.474 99.360 C 221.503 99.514,222.768 99.974,223.286 100.382 C 223.804 100.789,224.996 101.330,225.935 101.582 C 226.873 101.835,227.737 102.291,227.854 102.597 C 227.971 102.902,228.604 103.269,229.260 103.413 C 229.917 103.557,230.548 103.920,230.662 104.218 C 230.777 104.517,231.484 104.964,232.234 105.211 C 232.984 105.459,233.834 105.999,234.123 106.412 C 234.412 106.825,235.133 107.346,235.724 107.571 C 236.316 107.796,236.800 108.255,236.800 108.590 C 236.800 108.926,237.064 109.200,237.386 109.200 C 238.042 109.200,244.800 115.678,244.800 116.307 C 244.800 116.527,245.250 117.003,245.800 117.363 C 246.350 117.724,246.800 118.278,246.800 118.595 C 246.800 118.912,247.148 119.358,247.573 119.586 C 247.998 119.813,248.462 120.365,248.604 120.812 C 248.746 121.260,249.298 122.062,249.831 122.595 C 250.364 123.128,250.800 123.866,250.800 124.236 C 250.800 124.606,251.250 125.325,251.800 125.835 C 252.440 126.428,252.800 127.195,252.800 127.967 C 252.800 128.754,253.072 129.317,253.583 129.591 C 254.047 129.839,254.469 130.618,254.620 131.505 C 254.760 132.327,255.227 133.500,255.658 134.111 C 256.088 134.722,256.550 136.162,256.684 137.311 C 256.818 138.460,257.304 140.120,257.764 141.000 C 259.058 143.475,259.058 166.112,257.765 167.867 C 257.253 168.561,256.836 169.906,256.689 171.341 C 256.555 172.655,256.159 174.003,255.789 174.413 C 255.425 174.814,254.953 175.921,254.740 176.871 C 254.526 177.822,254.026 178.960,253.628 179.400 C 253.230 179.840,252.779 180.732,252.624 181.382 C 252.470 182.032,251.996 182.807,251.572 183.105 C 251.147 183.402,250.800 184.003,250.800 184.441 C 250.800 184.878,250.350 185.686,249.800 186.236 C 249.250 186.786,248.800 187.492,248.800 187.804 C 248.800 188.116,248.440 188.565,247.999 188.800 C 247.559 189.036,246.937 189.855,246.617 190.620 C 246.298 191.385,245.744 192.123,245.387 192.260 C 245.031 192.397,244.577 192.935,244.379 193.455 C 244.182 193.975,243.757 194.400,243.437 194.400 C 243.116 194.400,242.736 194.771,242.592 195.224 C 242.448 195.678,241.896 196.247,241.365 196.489 C 240.834 196.730,240.400 197.175,240.400 197.477 C 240.400 197.778,240.085 198.143,239.700 198.288 C 239.315 198.433,238.523 199.057,237.940 199.675 C 237.356 200.294,236.624 200.800,236.312 200.800 C 236.000 200.800,235.353 201.250,234.875 201.800 C 234.397 202.350,233.740 202.800,233.417 202.800 C 233.093 202.800,232.643 203.145,232.417 203.567 C 232.191 203.990,231.420 204.463,230.703 204.620 C 229.986 204.777,229.004 205.331,228.519 205.852 C 228.035 206.374,227.251 206.800,226.777 206.800 C 226.303 206.800,225.381 207.250,224.727 207.800 C 223.901 208.495,223.060 208.800,221.969 208.800 C 221.106 208.800,220.400 208.989,220.400 209.220 C 220.400 209.865,217.816 210.800,216.036 210.800 C 215.105 210.800,213.815 211.173,212.923 211.700 C 210.624 213.059,190.349 213.104,188.524 211.755 C 187.740 211.175,186.579 210.851,184.831 210.725 C 182.902 210.585,182.122 210.344,181.626 209.732 C 181.194 209.198,180.302 208.848,179.002 208.701 C 177.731 208.558,176.807 208.202,176.401 207.700 C 176.054 207.272,175.107 206.796,174.296 206.644 C 173.486 206.492,172.593 206.044,172.311 205.649 C 172.030 205.253,171.310 204.808,170.712 204.660 C 170.113 204.512,169.432 204.033,169.197 203.595 C 168.963 203.158,168.426 202.800,168.002 202.800 C 167.579 202.800,166.684 202.305,166.014 201.700 C 165.343 201.095,164.250 200.105,163.584 199.500 C 162.917 198.895,162.211 198.400,162.013 198.400 C 161.816 198.400,161.546 198.059,161.414 197.643 C 161.282 197.227,160.806 196.790,160.357 196.673 C 159.908 196.555,159.443 196.086,159.324 195.630 C 159.204 195.173,158.854 194.800,158.545 194.800 C 158.236 194.800,157.779 194.353,157.531 193.808 C 157.282 193.262,156.746 192.710,156.339 192.581 C 155.933 192.452,155.600 192.140,155.600 191.887 C 155.600 191.635,155.235 191.062,154.789 190.614 C 153.667 189.488,152.125 187.253,151.398 185.700 C 151.063 184.985,150.641 184.400,150.459 184.400 C 150.040 184.400,149.200 182.582,149.200 181.677 C 149.200 181.301,148.849 180.773,148.420 180.505 C 147.987 180.235,147.518 179.346,147.367 178.509 C 147.217 177.679,146.776 176.695,146.388 176.322 C 145.992 175.943,145.556 174.710,145.397 173.522 C 145.241 172.355,144.865 171.117,144.560 170.772 C 143.881 170.002,143.200 166.573,143.200 163.926 C 143.200 162.844,142.894 161.385,142.520 160.680 C 141.567 158.887,141.535 149.493,142.477 148.000 C 142.870 147.376,143.205 145.569,143.367 143.200 C 143.554 140.451,143.830 139.118,144.364 138.382 C 144.770 137.823,145.229 136.446,145.383 135.323 C 145.537 134.201,145.989 132.934,146.385 132.508 C 146.782 132.082,147.238 131.118,147.397 130.367 C 147.556 129.615,148.006 128.640,148.397 128.200 C 148.788 127.760,149.243 126.950,149.409 126.400 C 149.574 125.850,150.135 124.891,150.655 124.269 C 151.175 123.647,151.600 122.884,151.600 122.573 C 151.600 122.261,151.960 121.782,152.400 121.507 C 152.840 121.232,153.200 120.810,153.200 120.569 C 153.200 118.775,164.858 107.200,166.666 107.200 C 166.960 107.200,167.200 107.025,167.200 106.811 C 167.200 106.295,171.985 103.200,172.783 103.200 C 173.127 103.200,173.622 102.857,173.883 102.439 C 174.154 102.005,175.040 101.562,175.944 101.410 C 176.815 101.262,177.829 100.810,178.196 100.404 C 178.584 99.976,179.724 99.548,180.914 99.384 C 182.042 99.229,183.423 98.769,183.982 98.361 C 184.685 97.850,186.052 97.539,188.400 97.356 C 190.270 97.211,192.013 96.924,192.274 96.718 C 193.915 95.426,207.236 95.205,208.659 96.447 " stroke="none" fill="#fc0404" fill-rule="evenodd"></path><path id="path2" d="M192.531 97.831 C 189.853 98.124,186.975 98.651,186.134 99.002 C 185.294 99.353,183.816 99.817,182.850 100.034 C 180.308 100.603,172.731 104.123,171.169 105.460 C 170.821 105.757,170.366 106.000,170.158 106.000 C 169.255 106.000,162.230 111.752,159.214 114.960 C 156.621 117.720,152.762 122.685,151.879 124.400 C 151.483 125.170,150.620 126.790,149.962 128.000 C 147.643 132.265,146.335 135.822,144.518 142.800 C 143.231 147.740,143.726 166.761,145.188 168.600 C 145.363 168.820,145.708 169.958,145.955 171.129 C 147.266 177.348,153.527 188.079,159.300 194.000 C 174.531 209.622,199.647 216.038,217.908 208.971 C 219.287 208.437,220.703 208.000,221.053 208.000 C 221.404 208.000,222.346 207.648,223.146 207.217 C 223.945 206.786,225.230 206.150,226.000 205.803 C 226.770 205.456,228.120 204.735,229.000 204.201 C 229.880 203.667,231.263 202.866,232.073 202.421 C 232.883 201.976,233.663 201.422,233.806 201.190 C 233.950 200.957,234.744 200.340,235.572 199.818 C 238.844 197.752,244.903 191.217,248.751 185.602 C 251.028 182.280,256.000 171.334,256.000 169.645 C 256.000 169.263,256.399 167.522,256.886 165.775 C 258.096 161.442,258.225 147.582,257.090 143.908 C 256.701 142.648,256.204 140.676,255.986 139.527 C 255.237 135.579,251.754 127.761,248.781 123.355 C 247.907 122.060,246.766 120.370,246.244 119.600 C 241.786 113.018,232.017 105.698,221.400 100.983 C 214.444 97.895,203.192 96.666,192.531 97.831 M214.200 99.497 C 215.080 99.951,216.693 100.447,217.784 100.598 C 218.875 100.750,220.179 101.197,220.681 101.592 C 221.182 101.987,222.230 102.429,223.009 102.575 C 223.788 102.721,225.074 103.282,225.868 103.820 C 226.662 104.359,227.652 104.800,228.068 104.800 C 228.485 104.800,228.922 105.054,229.041 105.363 C 229.160 105.673,229.808 106.155,230.481 106.433 C 231.153 106.712,232.122 107.358,232.634 107.870 C 233.145 108.381,233.776 108.800,234.036 108.800 C 234.296 108.800,234.924 109.205,235.433 109.700 C 235.942 110.195,236.902 111.050,237.566 111.600 C 239.597 113.280,242.000 115.676,242.000 116.020 C 242.000 116.199,242.360 116.460,242.800 116.600 C 243.240 116.740,243.600 117.110,243.600 117.424 C 243.600 117.737,243.960 118.218,244.400 118.493 C 244.840 118.768,245.200 119.192,245.200 119.435 C 245.200 119.678,245.578 120.310,246.040 120.839 C 247.156 122.116,249.600 125.799,249.600 126.204 C 249.600 126.380,250.050 127.114,250.600 127.836 C 251.150 128.557,251.600 129.494,251.600 129.919 C 251.600 130.344,251.986 131.183,252.459 131.784 C 252.931 132.384,253.471 133.700,253.660 134.707 C 253.848 135.715,254.273 136.838,254.604 137.204 C 254.940 137.575,255.389 139.331,255.620 141.171 C 255.848 142.987,256.334 145.311,256.702 146.336 C 257.680 149.069,257.681 159.796,256.702 162.600 C 256.318 163.700,255.824 166.025,255.603 167.767 C 255.383 169.509,254.942 171.222,254.624 171.574 C 254.306 171.925,253.845 173.107,253.600 174.200 C 253.355 175.293,252.918 176.460,252.628 176.794 C 252.338 177.127,251.870 178.120,251.587 179.000 C 251.305 179.880,250.766 181.050,250.390 181.600 C 250.014 182.150,249.151 183.500,248.472 184.600 C 245.228 189.856,238.101 197.561,234.500 199.705 C 233.785 200.131,233.200 200.629,233.200 200.813 C 233.200 200.996,232.795 201.269,232.300 201.419 C 231.805 201.569,231.040 202.014,230.600 202.408 C 230.160 202.801,229.170 203.414,228.400 203.769 C 227.630 204.124,226.460 204.706,225.800 205.064 C 222.393 206.908,220.793 207.600,219.935 207.600 C 219.414 207.600,218.298 207.970,217.453 208.423 C 216.534 208.915,214.531 209.400,212.459 209.632 C 210.557 209.844,208.370 210.233,207.600 210.495 C 205.713 211.138,195.895 211.118,193.686 210.467 C 192.744 210.189,190.546 209.799,188.802 209.600 C 187.058 209.401,185.208 208.962,184.692 208.623 C 184.176 208.285,182.805 207.828,181.645 207.609 C 180.486 207.389,179.077 206.847,178.515 206.404 C 177.952 205.962,177.201 205.597,176.846 205.594 C 176.491 205.591,175.819 205.366,175.354 205.094 C 174.889 204.822,173.730 204.174,172.779 203.654 C 171.828 203.133,170.801 202.458,170.497 202.154 C 170.192 201.849,169.777 201.600,169.575 201.600 C 169.373 201.600,168.350 200.950,167.303 200.155 C 165.362 198.680,165.178 198.524,162.886 196.411 C 162.164 195.745,161.420 195.200,161.233 195.200 C 161.046 195.200,160.796 194.827,160.676 194.370 C 160.557 193.914,160.086 193.443,159.630 193.324 C 159.173 193.204,158.800 192.862,158.800 192.563 C 158.800 192.263,158.350 191.724,157.800 191.363 C 157.250 191.003,156.800 190.499,156.800 190.243 C 156.800 189.987,156.305 189.210,155.700 188.515 C 154.064 186.637,153.079 185.176,152.320 183.501 C 151.945 182.675,151.465 182.000,151.251 182.000 C 151.038 182.000,150.740 181.415,150.589 180.700 C 150.437 179.985,149.988 179.040,149.589 178.600 C 149.191 178.160,148.740 177.123,148.587 176.297 C 148.435 175.470,147.991 174.388,147.601 173.892 C 147.211 173.397,146.706 171.794,146.478 170.330 C 146.250 168.867,145.734 167.167,145.332 166.552 C 144.225 164.863,144.215 143.967,145.320 142.339 C 145.717 141.756,146.232 140.047,146.467 138.543 C 146.701 137.039,147.217 135.397,147.613 134.893 C 148.009 134.389,148.452 133.278,148.596 132.424 C 148.740 131.570,149.202 130.561,149.621 130.181 C 150.041 129.801,150.501 128.871,150.643 128.113 C 150.785 127.356,151.132 126.648,151.414 126.539 C 151.696 126.431,152.156 125.770,152.436 125.071 C 152.717 124.372,153.362 123.260,153.870 122.600 C 154.377 121.940,155.110 120.973,155.496 120.451 C 157.841 117.287,161.437 113.606,165.102 110.617 C 166.586 109.407,168.179 108.053,168.642 107.608 C 169.105 107.164,169.766 106.800,170.111 106.800 C 170.456 106.800,171.247 106.376,171.869 105.858 C 172.491 105.340,173.688 104.692,174.528 104.418 C 175.368 104.144,176.145 103.689,176.253 103.407 C 176.361 103.125,177.131 102.785,177.965 102.652 C 178.798 102.519,179.919 102.064,180.456 101.642 C 180.993 101.220,182.325 100.745,183.416 100.588 C 184.507 100.430,186.030 100.014,186.800 99.664 C 190.169 98.129,211.299 98.000,214.200 99.497 " stroke="none" fill="#690404" fill-rule="evenodd"></path><path id="path3" d="M193.800 97.187 C 193.140 97.362,191.895 97.527,191.033 97.553 C 190.172 97.579,189.574 97.707,189.705 97.838 C 189.835 97.969,192.520 97.859,195.671 97.593 C 204.615 96.839,215.212 98.235,221.400 100.983 C 232.017 105.698,241.786 113.018,246.244 119.600 C 246.766 120.370,247.907 122.060,248.781 123.355 C 251.754 127.761,255.237 135.579,255.986 139.527 C 256.204 140.676,256.701 142.648,257.090 143.908 C 258.225 147.582,258.096 161.442,256.886 165.775 C 256.399 167.522,256.000 169.263,256.000 169.645 C 256.000 171.334,251.028 182.280,248.751 185.602 C 244.903 191.217,238.844 197.752,235.572 199.818 C 234.744 200.340,233.950 200.957,233.806 201.190 C 233.663 201.422,232.883 201.976,232.073 202.421 C 231.263 202.866,229.880 203.667,229.000 204.201 C 228.120 204.735,226.770 205.456,226.000 205.803 C 225.230 206.150,223.945 206.786,223.146 207.217 C 222.346 207.648,221.404 208.000,221.053 208.000 C 220.703 208.000,219.287 208.437,217.908 208.971 C 208.485 212.617,192.605 212.374,181.400 208.411 C 168.095 203.705,155.984 193.027,149.855 180.600 C 147.261 175.338,146.404 173.257,145.955 171.129 C 145.708 169.958,145.358 168.815,145.177 168.588 C 144.996 168.361,144.677 167.281,144.469 166.188 C 144.161 164.574,144.081 164.442,144.045 165.485 C 144.020 166.192,144.335 167.632,144.745 168.685 C 145.155 169.738,145.612 171.268,145.761 172.085 C 146.153 174.245,149.520 181.641,151.157 183.940 C 151.621 184.591,152.000 185.250,152.000 185.404 C 152.000 185.558,152.405 186.194,152.900 186.817 C 153.395 187.440,154.429 188.816,155.197 189.875 C 157.844 193.522,167.397 202.400,168.673 202.400 C 168.818 202.400,169.221 202.655,169.569 202.967 C 170.324 203.645,173.254 205.329,175.200 206.204 C 175.970 206.550,177.255 207.186,178.054 207.617 C 178.854 208.048,179.847 208.400,180.260 208.400 C 180.674 208.400,181.639 208.735,182.406 209.144 C 183.173 209.553,185.060 210.103,186.600 210.366 C 188.140 210.629,190.288 211.104,191.373 211.422 C 194.104 212.222,207.654 212.235,210.086 211.439 C 211.029 211.131,213.060 210.669,214.600 210.414 C 216.140 210.159,217.763 209.715,218.206 209.427 C 218.649 209.140,219.639 208.774,220.406 208.614 C 221.839 208.314,226.961 205.915,229.800 204.214 C 230.680 203.687,231.940 202.949,232.600 202.576 C 233.260 202.202,234.070 201.656,234.400 201.362 C 234.730 201.068,236.260 199.796,237.800 198.535 C 240.620 196.225,242.120 194.742,244.613 191.800 C 247.344 188.577,250.400 184.294,250.400 183.689 C 250.400 183.479,250.766 182.842,251.214 182.273 C 251.662 181.703,252.228 180.644,252.471 179.919 C 252.714 179.193,253.130 178.330,253.396 178.000 C 254.634 176.461,257.416 166.874,258.097 161.800 C 258.650 157.687,258.223 145.411,257.454 143.299 C 257.114 142.364,256.634 140.474,256.389 139.099 C 256.143 137.725,255.700 136.224,255.404 135.764 C 255.108 135.304,254.654 134.134,254.395 133.164 C 254.137 132.194,253.675 131.118,253.368 130.774 C 253.061 130.430,252.597 129.538,252.337 128.792 C 252.077 128.046,251.490 126.871,251.032 126.181 C 250.575 125.490,249.750 124.160,249.200 123.224 C 244.159 114.647,233.836 105.989,222.725 101.018 C 221.473 100.458,220.260 100.000,220.028 100.000 C 219.797 100.000,218.300 99.555,216.704 99.011 C 211.744 97.322,197.549 96.191,193.800 97.187 M184.000 99.081 C 180.125 100.367,175.330 102.345,173.800 103.287 C 173.360 103.558,172.280 104.219,171.400 104.755 C 158.440 112.648,149.671 123.825,145.316 138.000 C 144.741 139.870,144.209 142.120,144.132 143.000 C 143.996 144.569,144.842 141.985,145.969 137.387 C 146.535 135.079,148.721 130.251,151.774 124.565 C 152.841 122.579,156.587 117.739,159.207 114.960 C 162.248 111.736,169.259 106.000,170.158 106.000 C 170.366 106.000,170.821 105.757,171.169 105.460 C 172.743 104.113,179.615 100.928,183.171 99.898 C 189.298 98.123,189.491 98.053,188.200 98.070 C 187.540 98.078,185.650 98.534,184.000 99.081 M143.265 150.100 C 142.914 154.191,142.923 156.403,143.305 159.800 L 143.800 164.200 143.800 154.500 C 143.800 149.165,143.782 144.800,143.760 144.800 C 143.738 144.800,143.515 147.185,143.265 150.100 " stroke="none" fill="#840404" fill-rule="evenodd"></path><path id="path4" d="M193.874 95.990 C 193.255 96.185,192.535 96.513,192.274 96.718 C 192.013 96.924,190.270 97.211,188.400 97.356 C 186.052 97.539,184.685 97.850,183.982 98.361 C 183.423 98.769,182.042 99.229,180.914 99.384 C 179.724 99.548,178.584 99.976,178.196 100.404 C 177.829 100.810,176.815 101.262,175.944 101.410 C 175.040 101.562,174.154 102.005,173.883 102.439 C 173.622 102.857,173.127 103.200,172.783 103.200 C 171.985 103.200,167.200 106.295,167.200 106.811 C 167.200 107.025,166.960 107.200,166.666 107.200 C 164.858 107.200,153.200 118.775,153.200 120.569 C 153.200 120.810,152.840 121.232,152.400 121.507 C 151.960 121.782,151.600 122.261,151.600 122.573 C 151.600 122.884,151.175 123.647,150.655 124.269 C 150.135 124.891,149.574 125.850,149.409 126.400 C 149.243 126.950,148.788 127.760,148.397 128.200 C 148.006 128.640,147.556 129.615,147.397 130.367 C 147.238 131.118,146.782 132.082,146.385 132.508 C 145.989 132.934,145.537 134.201,145.383 135.323 C 145.229 136.446,144.770 137.823,144.364 138.382 C 143.830 139.118,143.554 140.451,143.367 143.200 C 143.205 145.569,142.870 147.376,142.477 148.000 C 141.535 149.493,141.567 158.887,142.520 160.680 C 142.894 161.385,143.200 162.844,143.200 163.926 C 143.200 166.573,143.881 170.002,144.560 170.772 C 144.865 171.117,145.241 172.355,145.397 173.522 C 145.556 174.710,145.992 175.943,146.388 176.322 C 146.776 176.695,147.217 177.679,147.367 178.509 C 147.518 179.346,147.987 180.235,148.420 180.505 C 148.849 180.773,149.200 181.301,149.200 181.677 C 149.200 182.582,150.040 184.400,150.459 184.400 C 150.641 184.400,151.063 184.985,151.398 185.700 C 152.125 187.253,153.667 189.488,154.789 190.614 C 155.235 191.062,155.600 191.635,155.600 191.887 C 155.600 192.140,155.933 192.452,156.339 192.581 C 156.746 192.710,157.282 193.262,157.531 193.808 C 157.779 194.353,158.236 194.800,158.545 194.800 C 158.854 194.800,159.204 195.173,159.324 195.630 C 159.443 196.086,159.908 196.555,160.357 196.673 C 160.806 196.790,161.282 197.227,161.414 197.643 C 161.546 198.059,161.816 198.400,162.013 198.400 C 162.211 198.400,162.917 198.895,163.584 199.500 C 164.250 200.105,165.343 201.095,166.014 201.700 C 166.684 202.305,167.579 202.800,168.002 202.800 C 168.426 202.800,168.963 203.158,169.197 203.595 C 169.432 204.033,170.113 204.512,170.712 204.660 C 171.310 204.808,172.030 205.253,172.311 205.649 C 172.593 206.044,173.486 206.492,174.296 206.644 C 175.107 206.796,176.054 207.272,176.401 207.700 C 176.807 208.202,177.731 208.558,179.002 208.701 C 180.302 208.848,181.194 209.198,181.626 209.732 C 182.122 210.344,182.902 210.585,184.831 210.725 C 186.579 210.851,187.740 211.175,188.524 211.755 C 190.349 213.104,210.624 213.059,212.923 211.700 C 213.815 211.173,215.105 210.800,216.036 210.800 C 217.816 210.800,220.400 209.865,220.400 209.220 C 220.400 208.989,221.106 208.800,221.969 208.800 C 223.060 208.800,223.901 208.495,224.727 207.800 C 225.381 207.250,226.303 206.800,226.777 206.800 C 227.251 206.800,228.035 206.374,228.519 205.852 C 229.004 205.331,229.986 204.777,230.703 204.620 C 231.420 204.463,232.191 203.990,232.417 203.567 C 232.643 203.145,233.093 202.800,233.417 202.800 C 233.740 202.800,234.397 202.350,234.875 201.800 C 235.353 201.250,236.000 200.800,236.312 200.800 C 236.624 200.800,237.356 200.294,237.940 199.675 C 238.523 199.057,239.315 198.433,239.700 198.288 C 240.085 198.143,240.400 197.778,240.400 197.477 C 240.400 197.175,240.834 196.730,241.365 196.489 C 241.896 196.247,242.448 195.678,242.592 195.224 C 242.736 194.771,243.116 194.400,243.437 194.400 C 243.757 194.400,244.182 193.975,244.379 193.455 C 244.577 192.935,245.031 192.397,245.387 192.260 C 245.744 192.123,246.298 191.385,246.617 190.620 C 246.937 189.855,247.559 189.036,247.999 188.800 C 248.440 188.565,248.800 188.116,248.800 187.804 C 248.800 187.492,249.250 186.786,249.800 186.236 C 250.350 185.686,250.800 184.878,250.800 184.441 C 250.800 184.003,251.147 183.402,251.572 183.105 C 251.996 182.807,252.470 182.032,252.624 181.382 C 252.779 180.732,253.230 179.840,253.628 179.400 C 254.026 178.960,254.526 177.822,254.740 176.871 C 254.953 175.921,255.425 174.814,255.789 174.413 C 256.159 174.003,256.555 172.655,256.689 171.341 C 256.836 169.906,257.253 168.561,257.765 167.867 C 259.058 166.112,259.058 143.475,257.764 141.000 C 257.304 140.120,256.818 138.460,256.684 137.311 C 256.550 136.162,256.088 134.722,255.658 134.111 C 255.227 133.500,254.760 132.327,254.620 131.505 C 254.469 130.618,254.047 129.839,253.583 129.591 C 253.072 129.317,252.800 128.754,252.800 127.967 C 252.800 127.195,252.440 126.428,251.800 125.835 C 251.250 125.325,250.800 124.606,250.800 124.236 C 250.800 123.866,250.364 123.128,249.831 122.595 C 249.298 122.062,248.746 121.260,248.604 120.812 C 248.462 120.365,247.998 119.813,247.573 119.586 C 247.148 119.358,246.800 118.912,246.800 118.595 C 246.800 118.278,246.350 117.724,245.800 117.363 C 245.250 117.003,244.800 116.527,244.800 116.307 C 244.800 115.678,238.042 109.200,237.386 109.200 C 237.064 109.200,236.800 108.926,236.800 108.590 C 236.800 108.255,236.316 107.796,235.724 107.571 C 235.133 107.346,234.412 106.825,234.123 106.412 C 233.834 105.999,232.984 105.459,232.234 105.211 C 231.484 104.964,230.777 104.517,230.662 104.218 C 230.548 103.920,229.917 103.557,229.260 103.413 C 228.604 103.269,227.971 102.902,227.854 102.597 C 227.737 102.291,226.873 101.835,225.935 101.582 C 224.996 101.330,223.804 100.789,223.286 100.382 C 222.768 99.974,221.503 99.514,220.474 99.360 C 219.446 99.206,218.154 98.749,217.603 98.346 C 216.893 97.826,215.547 97.535,213.000 97.352 C 210.557 97.177,209.162 96.886,208.659 96.447 C 207.809 95.705,195.942 95.338,193.874 95.990 M210.600 97.553 C 212.360 97.811,215.107 98.467,216.704 99.011 C 218.300 99.555,219.797 100.000,220.028 100.000 C 220.890 100.000,227.666 103.255,230.400 104.983 C 235.094 107.949,236.950 109.396,240.424 112.800 C 244.518 116.812,247.543 120.405,249.200 123.224 C 249.750 124.160,250.575 125.490,251.032 126.181 C 251.490 126.871,252.077 128.046,252.337 128.792 C 252.597 129.538,253.061 130.430,253.368 130.774 C 253.675 131.118,254.137 132.194,254.395 133.164 C 254.654 134.134,255.108 135.304,255.404 135.764 C 255.700 136.224,256.143 137.725,256.389 139.099 C 256.634 140.474,257.114 142.364,257.454 143.299 C 258.223 145.411,258.650 157.687,258.097 161.800 C 257.416 166.874,254.634 176.461,253.396 178.000 C 253.130 178.330,252.714 179.193,252.471 179.919 C 252.228 180.644,251.662 181.703,251.214 182.273 C 250.766 182.842,250.400 183.479,250.400 183.689 C 250.400 184.294,247.344 188.577,244.613 191.800 C 242.120 194.742,240.620 196.225,237.800 198.535 C 236.260 199.796,234.730 201.068,234.400 201.362 C 234.070 201.656,233.260 202.202,232.600 202.576 C 231.940 202.949,230.680 203.687,229.800 204.214 C 226.961 205.915,221.839 208.314,220.406 208.614 C 219.639 208.774,218.649 209.140,218.206 209.427 C 217.763 209.715,216.140 210.159,214.600 210.414 C 213.060 210.669,211.029 211.131,210.086 211.439 C 207.654 212.235,194.104 212.222,191.373 211.422 C 190.288 211.104,188.140 210.629,186.600 210.366 C 185.060 210.103,183.173 209.553,182.406 209.144 C 181.639 208.735,180.674 208.400,180.260 208.400 C 179.847 208.400,178.854 208.048,178.054 207.617 C 177.255 207.186,175.970 206.550,175.200 206.204 C 173.254 205.329,170.324 203.645,169.569 202.967 C 169.221 202.655,168.818 202.400,168.673 202.400 C 167.397 202.400,157.844 193.522,155.197 189.875 C 154.429 188.816,153.395 187.440,152.900 186.817 C 152.405 186.194,152.000 185.558,152.000 185.404 C 152.000 185.250,151.621 184.591,151.157 183.940 C 149.520 181.641,146.153 174.245,145.761 172.085 C 145.612 171.268,145.177 169.790,144.795 168.800 C 144.402 167.783,143.809 164.130,143.432 160.400 C 141.111 137.458,151.437 116.914,171.400 104.755 C 172.280 104.219,173.360 103.558,173.800 103.287 C 174.669 102.752,175.445 102.397,178.800 100.998 C 182.746 99.352,187.330 98.078,190.994 97.607 C 192.971 97.353,194.678 97.056,194.787 96.946 C 195.134 96.599,207.268 97.065,210.600 97.553 " stroke="none" fill="#bc0404" fill-rule="evenodd"></path></g></svg>